<mxfile host="app.diagrams.net" modified="2023-12-14T14:26:23.349Z" agent="Mozilla/5.0 (Macintosh; Intel Mac OS X 10_15_7) AppleWebKit/537.36 (KHTML, like Gecko) Chrome/120.0.0.0 Safari/537.36" version="22.1.8" etag="3Il2idsk66oAn74arx1c" type="github">
  <diagram name="Page-1" id="kgteR6cCguzd9n5vGQ0v">
    <mxGraphModel>
      <root>
        <mxCell id="0" />
        <mxCell id="1" parent="0" />
      </root>
    </mxGraphModel>
  </diagram>
</mxfile>
